<?xml version="1.0" standalone="no"?>
<!DOCTYPE svg PUBLIC "-//W3C//DTD SVG 20010904//EN"
 "http://www.w3.org/TR/2001/REC-SVG-20010904/DTD/svg10.dtd">
<svg version="1.0" xmlns="http://www.w3.org/2000/svg"
 width="502.000000pt" height="502.000000pt" viewBox="0 0 502.000000 502.000000"
 preserveAspectRatio="xMidYMid meet">
<metadata>
Created by potrace 1.14, written by Peter Selinger 2001-2017
</metadata>
<g transform="translate(0.000000,502.000000) scale(0.100000,-0.100000)"
fill="#000000" stroke="none">
<path d="M214 4694 c-5 -2 -25 -5 -44 -6 -50 -5 -112 -37 -106 -55 3 -8 2 -12
-2 -9 -17 10 -29 -32 -31 -106 -1 -45 2 -79 8 -83 6 -3 11 -21 11 -39 0 -17 6
-38 13 -45 9 -11 9 -13 0 -7 -7 4 -13 2 -13 -3 0 -6 5 -11 11 -11 5 0 7 -4 4
-10 -3 -5 -2 -10 2 -10 5 0 17 -14 28 -32 20 -35 39 -57 127 -152 32 -33 58
-64 58 -68 0 -5 5 -8 11 -8 7 0 19 -8 28 -17 9 -10 36 -34 61 -53 64 -49 68
-52 100 -82 15 -16 33 -28 39 -28 6 0 11 -4 11 -9 0 -5 16 -15 35 -22 19 -7
35 -17 35 -21 0 -4 6 -8 13 -8 6 0 25 -11 41 -24 l30 -23 -33 -32 c-18 -17
-44 -57 -59 -89 -24 -52 -27 -67 -25 -160 2 -95 -14 -196 -44 -272 -3 -8 -7
-21 -9 -29 -1 -8 -6 -17 -11 -20 -14 -10 -52 -94 -58 -126 -10 -57 -13 -71
-49 -167 -51 -143 -61 -229 -33 -295 13 -31 71 -103 84 -103 13 0 83 -81 84
-98 1 -10 3 -26 4 -37 2 -11 5 -40 9 -65 16 -128 61 -199 144 -228 36 -12 104
-62 137 -99 11 -12 31 -51 44 -85 20 -52 39 -78 111 -148 81 -79 150 -166 150
-188 0 -6 35 -46 79 -89 63 -62 82 -89 96 -130 9 -29 21 -53 27 -53 6 0 8 -9
5 -20 -3 -11 -1 -18 3 -15 5 3 22 -6 38 -20 33 -28 52 -31 70 -13 9 9 12 9 12
0 0 -7 -4 -12 -9 -12 -6 0 -8 -9 -6 -20 2 -11 -1 -20 -7 -20 -6 0 -7 8 -3 18
5 13 4 14 -6 5 -10 -10 -17 -7 -35 12 -22 24 -43 23 -23 -1 7 -9 3 -20 -16
-39 -26 -29 -29 -37 -25 -70 4 -36 40 -63 40 -30 0 8 6 15 13 15 6 0 23 3 37
6 l25 5 -25 -14 c-14 -9 -28 -13 -32 -11 -5 3 -8 0 -8 -5 0 -6 9 -11 20 -11
11 0 20 5 20 11 0 5 4 8 9 5 17 -11 35 26 36 74 1 52 30 117 55 123 14 3 49
-11 60 -24 3 -3 20 -12 38 -20 17 -8 32 -17 32 -21 0 -5 6 -8 13 -8 6 0 18
-12 24 -27 11 -22 10 -29 -2 -43 -8 -9 -15 -20 -15 -24 0 -11 30 -39 31 -29 4
20 6 40 8 72 1 25 5 32 16 27 9 -3 15 0 15 10 0 9 -5 12 -12 8 -7 -5 -8 -3 -3
5 5 9 11 9 17 3 7 -7 19 -7 34 -2 14 6 26 5 29 -1 4 -5 11 -7 16 -3 6 3 9 0 7
-7 -1 -8 2 -14 7 -14 6 0 9 3 8 7 -2 4 4 5 12 2 15 -6 19 -17 16 -42 -1 -6 3
-12 8 -12 15 0 23 18 11 25 -15 9 -12 25 5 25 8 0 15 -4 15 -10 0 -5 7 -10 15
-10 8 0 16 -9 16 -20 2 -24 3 -28 13 -59 6 -18 10 -21 17 -10 6 9 9 10 9 2 0
-6 -5 -15 -10 -18 -6 -4 -8 -10 -5 -15 3 -4 -1 -38 -9 -74 -7 -36 -11 -68 -8
-71 3 -3 15 -5 27 -5 29 0 51 40 37 67 -6 10 -10 41 -10 68 1 28 3 42 5 33 8
-32 18 -19 19 24 1 32 7 47 28 65 45 38 84 29 77 -19 0 -4 8 -10 19 -13 11 -4
18 -11 14 -16 -3 -6 -12 -8 -20 -5 -22 8 -16 0 12 -19 22 -14 28 -15 36 -4 5
9 6 5 2 -13 -3 -15 -2 -33 3 -40 4 -7 9 -26 10 -43 0 -16 2 -30 3 -30 7 0 6
-62 -1 -75 -15 -31 -17 -83 -5 -118 13 -36 13 -91 2 -184 -4 -37 0 -58 19
-100 15 -32 20 -55 14 -58 -12 -8 -49 -76 -49 -91 0 -6 9 -24 21 -40 12 -17
21 -45 21 -64 0 -39 6 -45 49 -50 31 -4 31 -4 23 33 -5 20 -8 57 -9 82 0 30
-4 44 -13 43 -6 -2 -12 2 -12 8 0 6 7 9 15 6 11 -5 14 2 13 31 -1 56 0 58 27
90 15 19 26 45 28 76 4 43 2 48 -32 76 l-36 30 0 113 c0 63 5 128 13 150 7 21
13 60 14 87 2 28 6 50 10 50 5 0 8 19 8 43 0 30 6 50 20 65 18 19 73 49 105
58 6 1 26 9 45 17 81 34 146 -14 131 -97 -1 -4 2 -13 8 -20 5 -6 9 -38 9 -71
-1 -55 1 -60 23 -63 21 -4 22 -2 9 14 -11 13 -12 16 -2 10 11 -7 12 -4 3 12
-10 18 -9 31 5 85 3 12 7 30 8 40 1 10 10 27 20 38 14 16 20 18 31 9 8 -7 21
-10 30 -7 8 4 21 0 29 -8 7 -8 16 -12 18 -9 3 2 4 -8 2 -23 -5 -44 7 -47 38
-12 17 19 27 27 23 19 -14 -27 -48 -59 -56 -54 -5 3 -9 -4 -9 -15 0 -11 4 -22
9 -26 6 -3 5 -21 -4 -44 -13 -37 -13 -38 11 -33 13 2 21 9 18 14 -9 14 -11 69
-3 73 15 10 55 102 57 133 1 18 13 45 28 61 24 28 27 28 112 26 178 -6 262
-24 286 -60 15 -23 15 -75 0 -137 -4 -18 -2 -28 5 -28 6 0 11 -6 11 -14 0 -8
5 -16 11 -18 16 -5 13 -123 -4 -168 -3 -8 -8 -39 -11 -69 -3 -30 -12 -61 -21
-71 -21 -23 -19 -46 7 -64 30 -21 41 -20 28 3 -15 29 19 68 46 53 18 -11 18
-11 -2 -12 -27 0 -39 -26 -16 -35 14 -5 14 -7 2 -15 -8 -5 -11 -12 -7 -16 11
-11 62 30 65 52 1 11 -6 29 -16 40 -52 55 -51 195 0 232 23 17 23 27 -1 51
-11 11 -22 39 -26 63 -5 37 -2 47 20 72 27 32 27 32 16 61 -5 13 -2 25 8 35
16 17 82 50 98 50 17 0 133 120 218 225 61 76 117 130 153 149 17 9 34 16 37
16 3 -1 25 8 50 19 58 26 92 61 172 184 37 56 70 104 74 107 3 3 22 29 42 57
39 58 69 89 139 146 91 73 146 133 167 184 15 36 11 156 -9 273 -5 36 -13 81
-16 100 -3 19 -6 94 -8 165 -2 72 -7 141 -10 155 -3 14 -11 50 -18 80 -14 66
-15 69 -18 73 -2 2 -5 15 -14 67 -8 38 -8 56 -1 229 3 106 5 116 27 133 13 10
33 21 46 24 12 3 22 9 22 13 0 3 12 7 28 7 33 2 104 42 96 55 -3 5 -1 9 4 9 6
0 26 16 45 35 19 19 34 35 32 35 -2 0 17 21 41 47 24 25 44 50 44 55 0 4 8 16
18 26 44 44 62 82 66 136 5 73 -11 92 -78 95 -49 1 -59 8 -96 61 -23 32 -119
127 -135 134 -8 3 -15 10 -15 16 0 6 -4 8 -10 5 -5 -3 -10 1 -10 9 0 9 -7 16
-15 16 -8 0 -15 4 -15 9 0 9 -16 14 -77 26 -13 2 -23 1 -23 -3 0 -4 -24 -8
-53 -9 -71 -2 -100 -11 -152 -47 -16 -12 -32 -21 -35 -21 -3 0 -31 -17 -63
-38 -31 -20 -62 -37 -67 -37 -6 0 -10 -4 -10 -10 0 -5 -5 -10 -11 -10 -6 0
-28 -13 -49 -30 -21 -16 -42 -30 -48 -30 -6 0 -12 -4 -14 -8 -3 -9 -106 -70
-148 -89 -14 -7 -53 -24 -87 -39 -35 -15 -63 -31 -63 -36 0 -5 -4 -7 -9 -4 -5
4 -11 2 -13 -3 -1 -6 -48 34 -103 87 -115 111 -151 142 -191 168 -15 11 -39
29 -52 41 -34 32 -225 126 -317 156 -105 35 -252 67 -340 73 -62 5 -192 8
-205 5 -3 -1 -39 -3 -80 -6 -85 -4 -242 -36 -328 -66 -31 -11 -71 -24 -88 -30
-58 -17 -218 -100 -304 -157 -50 -33 -130 -101 -196 -167 l-110 -112 -120 61
c-163 83 -241 136 -428 286 -10 8 -37 31 -60 50 -23 19 -61 51 -85 70 -24 19
-49 41 -56 48 -8 6 -16 12 -19 12 -3 0 -16 10 -30 23 -56 51 -86 74 -91 69 -3
-3 -5 0 -5 6 0 9 -73 49 -125 67 -25 9 -118 22 -131 19z m3179 -3539 c4 3 5 2
2 -2 -9 -12 -34 -12 -32 0 1 7 -4 11 -11 9 -8 -1 -11 2 -7 8 5 8 13 6 24 -4
10 -9 21 -14 24 -11z m-538 -35 c3 -6 -1 -7 -9 -4 -18 7 -21 14 -7 14 6 0 13
-4 16 -10z m-1439 -21 c19 -22 19 -22 -3 -8 -13 8 -23 17 -23 21 0 12 6 9 26
-13z m1974 7 c-1 -5 4 -13 12 -18 11 -8 11 -9 0 -6 -8 2 -13 7 -12 12 1 5 -4
13 -12 18 -11 8 -11 9 0 6 8 -2 13 -7 12 -12z m-1940 -6 c0 -5 -2 -10 -4 -10
-3 0 -8 5 -11 10 -3 6 -1 10 4 10 6 0 11 -4 11 -10z m1226 -12 c4 -7 3 -8 -4
-4 -7 4 -12 2 -12 -5 0 -7 -3 -10 -6 -6 -6 5 3 27 11 27 2 0 7 -5 11 -12z
m-1312 -13 c-4 -8 -11 -12 -16 -9 -6 4 -5 10 3 15 19 12 19 11 13 -6z m41 -5
c3 -6 -1 -7 -9 -4 -18 7 -21 14 -7 14 6 0 13 -4 16 -10z m612 -19 c0 -11 -5
-18 -9 -15 -4 3 -5 11 -1 19 7 21 12 19 10 -4z m1410 -121 c-2 -11 -6 -22 -9
-26 -4 -3 -5 2 -3 13 2 10 4 21 4 26 1 4 3 7 6 7 3 0 4 -9 2 -20z m-1137 -510
c0 -5 -8 -10 -17 -10 -15 0 -16 2 -3 10 19 12 20 12 20 0z m-13 -92 c2 -18 0
-20 -7 -8 -12 18 -13 30 -2 30 4 0 9 -10 9 -22z m-50 -100 c-3 -7 -5 -2 -5 12
0 14 2 19 5 13 2 -7 2 -19 0 -25z"/>
<path d="M2489 1015 c-4 -14 -6 -21 -13 -37 -5 -11 -2 -23 7 -32 13 -13 17
-13 36 0 19 14 21 41 2 30 -4 -3 -8 4 -8 15 -1 12 3 17 9 13 7 -4 8 -2 4 4 -7
12 -35 17 -37 7z"/>
<path d="M1368 916 c-20 -14 -24 -36 -8 -36 6 0 10 5 10 11 0 5 5 7 10 4 6 -4
17 -2 24 4 8 7 18 10 24 9 5 -2 12 2 14 7 5 15 -55 17 -74 1z"/>
<path d="M2615 910 c3 -5 8 -10 11 -10 2 0 4 5 4 10 0 6 -5 10 -11 10 -5 0 -7
-4 -4 -10z"/>
<path d="M1440 889 c0 -6 -5 -7 -10 -4 -6 4 -16 2 -23 -3 -7 -6 -23 -12 -37
-14 l-24 -3 26 -17 c31 -20 62 -14 82 17 13 20 13 24 1 29 -8 3 -15 1 -15 -5z"/>
<path d="M2490 879 c0 -20 24 -42 35 -31 5 4 5 1 1 -5 -4 -7 -13 -13 -20 -13
-16 0 -46 -32 -46 -48 0 -7 9 -12 20 -12 12 0 20 7 20 16 0 11 6 15 20 11 24
-6 70 47 70 82 0 20 -4 22 -50 20 -39 -2 -50 -6 -50 -20z"/>
<path d="M2812 861 c-9 -25 -7 -33 8 -52 24 -26 47 -19 56 17 14 57 -45 89
-64 35z"/>
<path d="M1720 871 c0 -5 5 -13 10 -16 6 -3 10 -2 10 4 0 5 -4 13 -10 16 -5 3
-10 2 -10 -4z"/>
<path d="M2638 849 c-47 -35 -34 -70 30 -84 59 -12 98 46 61 91 -16 20 -60 17
-91 -7z m70 -29 c8 0 10 5 6 13 -5 8 -4 9 4 2 16 -14 3 -55 -17 -56 -46 -3
-71 9 -71 36 1 6 7 2 15 -9 9 -12 20 -16 31 -12 13 5 15 9 6 18 -7 7 -12 17
-12 22 0 6 5 5 12 -2 7 -7 18 -12 26 -12z"/>
<path d="M1659 833 c-12 -15 -12 -16 4 -10 12 4 17 2 15 -6 -5 -19 15 -22 27
-3 7 12 6 19 -5 26 -21 13 -26 12 -41 -7z"/>
<path d="M1951 743 c-10 -11 -11 -20 -4 -32 13 -21 57 -26 72 -7 7 8 19 12 27
9 8 -3 14 0 14 7 0 7 -8 10 -19 7 -11 -2 -25 3 -35 14 -19 23 -36 24 -55 2z"/>
<path d="M1411 736 c-8 -10 -4 -13 19 -13 35 0 37 3 11 16 -14 8 -22 7 -30 -3z"/>
<path d="M1683 723 c-7 -2 -13 -16 -13 -29 0 -21 4 -24 25 -20 14 3 25 0 25
-6 0 -6 -8 -7 -17 -3 -14 5 -15 3 -7 -5 16 -16 55 -3 47 16 -3 7 1 14 7 14 9
0 7 7 -5 20 -18 19 -37 24 -62 13z"/>
<path d="M2652 684 c-27 -24 -36 -84 -16 -113 18 -26 59 -28 69 -3 24 58 23
70 -4 102 -26 32 -27 32 -49 14z m45 -50 c-2 -3 -15 -7 -28 -9 -23 -4 -23 -4
-5 10 16 12 45 11 33 -1z m-33 -47 c-3 -7 1 -4 9 6 8 9 20 17 28 17 11 0 11
-2 -1 -10 -8 -5 -11 -10 -7 -10 4 0 2 -6 -5 -14 -17 -18 -37 -10 -35 14 1 10
5 16 9 14 5 -3 6 -11 2 -17z"/>
<path d="M2378 678 c-31 -11 -47 -46 -27 -59 19 -12 39 -11 39 1 0 6 11 8 25
6 21 -4 24 -1 23 21 -3 31 -25 43 -60 31z"/>
<path d="M2816 652 c-17 -19 -17 -46 -2 -71 8 -12 11 -10 17 7 9 25 26 29 26
7 0 -8 -3 -12 -7 -10 -4 2 -7 -3 -7 -11 0 -21 20 -12 33 15 9 18 8 29 -3 52
-17 34 -33 37 -57 11z"/>
<path d="M1326 643 c-10 -10 -7 -35 4 -28 6 3 10 -1 10 -9 0 -9 6 -16 14 -16
19 0 35 22 27 40 -6 15 -43 24 -55 13z"/>
<path d="M1703 504 c-7 -3 -13 -13 -13 -21 0 -13 3 -13 15 -3 12 10 19 10 27
2 9 -9 8 -12 -5 -12 -24 0 -21 -15 3 -17 20 -2 21 0 24 35 1 17 -27 26 -51 16z"/>
<path d="M3381 501 c-13 -8 -13 -12 0 -27 12 -15 12 -16 0 -9 -10 5 -12 4 -7
-3 4 -7 2 -12 -5 -12 -7 0 -10 -3 -7 -6 8 -8 50 15 44 24 -2 4 4 8 15 8 16 0
15 -3 -9 -23 -26 -21 -26 -22 -5 -23 33 0 49 36 27 61 -19 21 -32 23 -53 10z"/>
<path d="M2950 490 c0 -5 7 -10 15 -10 8 0 15 5 15 10 0 6 -7 10 -15 10 -8 0
-15 -4 -15 -10z"/>
<path d="M2660 427 c-20 -17 -23 -42 -6 -56 11 -9 16 -9 22 0 4 7 3 9 -4 5 -6
-3 -13 -2 -17 4 -3 5 3 10 14 10 12 0 21 5 21 10 0 6 7 10 17 10 14 0 14 -2
-3 -21 -19 -21 -19 -21 1 -18 15 3 20 12 20 34 0 25 -4 30 -25 32 -14 2 -32
-3 -40 -10z"/>
<path d="M2031 396 c-17 -20 -3 -46 22 -42 26 4 33 22 17 41 -15 19 -24 19
-39 1z"/>
<path d="M2814 395 c-10 -24 4 -45 26 -42 32 5 46 23 30 42 -16 19 -49 20 -56
0z m39 -18 c3 -8 -1 -14 -9 -14 -15 0 -18 9 -7 20 9 9 10 9 16 -6z"/>
<path d="M3384 286 c-15 -12 -16 -16 -5 -30 17 -20 47 -21 55 0 8 22 8 22 -13
33 -13 7 -24 6 -37 -3z m29 -22 c-3 -15 -20 -15 -26 0 -4 9 0 13 11 12 9 -2
16 -7 15 -12z"/>
</g>
</svg>
